<?xml version="1.0" standalone="no"?>
<!DOCTYPE svg PUBLIC "-//W3C//DTD SVG 20010904//EN"
 "http://www.w3.org/TR/2001/REC-SVG-20010904/DTD/svg10.dtd">
<svg version="1.0" xmlns="http://www.w3.org/2000/svg"
 width="512.000000pt" height="512.000000pt" viewBox="0 0 512.000000 512.000000"
 preserveAspectRatio="xMidYMid meet">
<metadata>
Created by potrace 1.14, written by Peter Selinger 2001-2017
</metadata>
<g transform="translate(0.000000,512.000000) scale(0.100000,-0.100000)"
fill="#000000" stroke="none">
<path d="M2418 5035 c-2 -1 -39 -5 -83 -8 -44 -4 -91 -9 -105 -11 -14 -2 -43
-7 -65 -10 -128 -16 -471 -111 -499 -137 -6 -5 -17 -9 -25 -9 -20 0 -284 -130
-357 -175 -75 -48 -172 -113 -205 -139 -14 -12 -43 -34 -65 -51 -248 -191
-506 -506 -656 -801 -155 -303 -235 -584 -267 -929 -9 -91 -7 -398 3 -465 4
-25 9 -63 12 -85 56 -397 209 -775 451 -1112 186 -259 468 -516 743 -677 239
-140 543 -255 795 -300 17 -3 41 -8 55 -11 163 -33 578 -40 740 -11 14 3 43 7
65 10 22 3 49 7 60 10 11 3 54 12 95 20 266 57 588 196 827 357 59 41 110 76
113 79 3 3 39 32 80 65 74 58 252 232 319 310 162 190 323 458 414 692 38 95
101 296 110 348 3 17 11 55 17 85 6 30 14 69 16 85 3 17 7 39 9 51 19 86 26
436 12 579 -11 115 -37 268 -61 360 -2 6 -6 24 -11 40 -39 153 -114 345 -198
510 -51 99 -208 342 -258 400 -15 17 -48 55 -74 85 -76 89 -266 269 -340 322
-5 4 -23 18 -40 32 -136 108 -441 274 -628 341 -173 62 -376 112 -526 130 -30
4 -63 9 -75 11 -22 5 -393 13 -398 9z"/>
</g>
</svg>
