<?xml version="1.0" standalone="no"?>
<!DOCTYPE svg PUBLIC "-//W3C//DTD SVG 20010904//EN"
 "http://www.w3.org/TR/2001/REC-SVG-20010904/DTD/svg10.dtd">
<svg version="1.0" xmlns="http://www.w3.org/2000/svg"
 width="512.000000pt" height="512.000000pt" viewBox="0 0 512.000000 512.000000"
 preserveAspectRatio="xMidYMid meet">
<metadata>
Created by potrace 1.14, written by Peter Selinger 2001-2017
</metadata>
<g transform="translate(0.000000,512.000000) scale(0.100000,-0.100000)"
fill="#000000" stroke="none">
<path d="M2529 4833 c-28 -7 -53 -65 -45 -107 7 -38 51 -76 89 -76 32 0 74 28
87 59 33 81 -38 149 -131 124z"/>
<path d="M2430 4517 c-3 -3 -50 -8 -104 -11 -55 -4 -102 -8 -105 -10 -3 -2
-24 -7 -46 -11 -22 -4 -44 -8 -50 -9 -5 -1 -36 -8 -68 -15 -33 -7 -74 -19 -93
-27 -19 -8 -34 -12 -34 -9 0 9 -205 -72 -295 -117 -256 -128 -525 -345 -682
-551 -26 -34 -50 -64 -53 -67 -18 -17 -117 -179 -171 -280 -24 -44 -67 -140
-64 -140 2 0 -7 -25 -20 -55 -21 -47 -78 -239 -90 -308 -3 -12 -7 -33 -10 -47
-38 -177 -38 -534 0 -710 7 -31 14 -66 21 -104 2 -16 7 -32 9 -36 2 -3 6 -18
9 -33 5 -28 20 -79 40 -132 6 -16 11 -32 11 -35 0 -20 105 -240 114 -240 4 0
31 24 60 54 l54 55 -36 83 c-34 79 -76 195 -82 228 -2 8 -8 33 -14 55 -6 22
-13 58 -17 80 -3 22 -8 43 -10 46 -10 16 -19 179 -19 334 0 175 6 256 24 335
5 25 12 56 14 70 19 101 90 297 152 419 36 73 132 231 145 241 3 3 21 28 40
55 38 57 288 307 344 345 21 14 43 31 51 38 7 6 18 12 23 12 6 0 12 4 14 8 5
13 143 93 238 139 77 37 222 95 235 94 2 0 23 6 45 14 22 8 40 12 40 8 0 -3 7
0 15 7 8 7 15 10 15 6 0 -3 11 -1 24 4 13 5 44 11 67 15 49 6 81 12 119 21 51
13 407 11 491 -2 133 -20 161 -25 186 -35 13 -5 23 -6 23 -3 0 4 7 1 15 -6 8
-7 15 -10 15 -7 0 4 19 -1 43 -9 23 -9 49 -17 57 -19 95 -25 329 -137 433
-208 129 -88 201 -149 307 -258 42 -43 82 -77 90 -75 38 6 150 49 150 56 0 11
-42 59 -136 153 -254 255 -575 440 -924 532 -3 1 -32 7 -65 15 -33 8 -62 14
-65 15 -8 2 -113 18 -145 21 -57 7 -330 16 -335 11z"/>
<path d="M3633 4453 c-29 -6 -39 -48 -18 -80 13 -20 22 -23 43 -18 32 8 38 13
46 42 5 15 0 28 -15 42 -13 12 -25 20 -28 20 -3 -1 -16 -4 -28 -6z"/>
<path d="M4050 4341 c0 -6 -15 -24 -34 -41 l-33 -31 40 -40 c30 -29 42 -37 48
-27 5 7 9 16 9 21 0 4 12 15 28 25 l27 17 -42 43 c-24 24 -43 39 -43 33z"/>
<path d="M780 4227 c0 -20 -61 -88 -89 -99 -25 -9 -26 -10 -6 -24 11 -8 30
-21 41 -29 12 -9 30 -31 40 -50 10 -20 22 -34 25 -33 4 2 22 23 41 48 18 25
44 49 56 55 29 13 28 20 -7 41 -16 9 -41 37 -56 61 -28 43 -45 55 -45 30z"/>
<path d="M2543 4027 c-26 -12 -29 -25 -9 -52 12 -17 18 -18 40 -7 30 13 34 42
9 58 -13 8 -25 8 -40 1z"/>
<path d="M3073 3975 c-117 -35 -194 -140 -199 -271 -2 -56 2 -80 20 -120 54
-116 134 -168 261 -170 69 -1 88 2 135 26 62 32 101 71 135 137 32 63 32 167
0 238 -25 56 -97 129 -153 152 -47 20 -145 24 -199 8z"/>
<path d="M4277 3942 c-58 -60 -15 -162 68 -162 27 0 44 8 66 29 38 39 39 87 3
130 -21 26 -33 31 -68 31 -33 0 -48 -6 -69 -28z"/>
<path d="M1797 3883 c-1 0 -22 -3 -47 -6 -78 -9 -239 -56 -267 -79 -7 -6 -13
-8 -13 -4 0 3 -18 -5 -40 -19 -22 -14 -42 -25 -46 -25 -7 0 -142 -97 -161
-115 -10 -11 -18 -65 -13 -90 1 -5 3 -14 4 -20 12 -65 77 -198 132 -271 50
-66 132 -154 144 -154 5 0 13 -6 17 -13 4 -8 24 -24 43 -38 19 -13 37 -26 40
-29 12 -13 171 -90 235 -115 70 -26 230 -69 295 -79 29 -4 42 0 65 21 96 83
319 200 417 217 15 2 32 7 36 10 10 6 50 12 137 22 28 4 54 10 58 14 7 6 1 37
-18 100 -1 3 -7 19 -14 35 -6 17 -21 54 -32 83 -12 28 -25 52 -30 52 -5 0 -9
4 -9 10 0 10 -45 83 -70 114 -42 52 -162 167 -210 203 -79 57 -242 133 -319
148 -13 2 -30 6 -39 9 -42 13 -285 29 -295 19z"/>
<path d="M4606 3674 c-50 -8 -104 -18 -120 -24 -17 -5 -42 -11 -56 -14 -33 -6
-247 -74 -285 -91 -16 -7 -88 -36 -160 -65 -71 -29 -150 -61 -175 -72 -72 -32
-539 -263 -604 -299 l-60 -33 65 -18 c35 -11 71 -21 79 -23 8 -2 27 -8 42 -14
24 -9 44 -2 160 53 128 62 203 95 213 95 3 0 19 8 35 16 17 9 30 13 30 9 0 -4
6 -1 14 5 12 10 185 75 226 85 8 2 53 14 100 26 152 39 269 30 286 -23 9 -29
12 -67 5 -67 -4 0 -7 -9 -8 -20 -2 -23 -78 -140 -132 -201 -33 -38 -182 -187
-256 -258 -16 -15 -86 -74 -155 -131 -69 -57 -126 -107 -128 -112 -2 -4 -10
-8 -18 -8 -8 0 -14 -3 -14 -7 0 -5 -20 -21 -45 -38 -24 -16 -45 -33 -45 -37 0
-5 -6 -8 -14 -8 -8 0 -16 -4 -18 -9 -6 -18 -358 -265 -593 -417 -55 -36 -148
-96 -207 -134 -59 -39 -110 -70 -112 -70 -3 0 -30 -16 -60 -35 -30 -19 -59
-35 -65 -35 -5 0 -11 -3 -13 -7 -4 -9 -48 -36 -98 -61 -19 -9 -37 -20 -40 -23
-5 -6 -82 -48 -265 -144 -49 -26 -94 -51 -100 -55 -11 -9 -352 -168 -375 -175
-3 -1 -23 -9 -45 -19 -77 -34 -266 -102 -310 -112 -5 -1 -30 -7 -55 -15 -84
-23 -191 -35 -242 -25 -77 14 -100 83 -57 169 49 97 204 276 349 402 30 26 80
69 110 96 30 26 86 72 123 102 37 31 64 58 60 60 -5 3 -40 16 -79 30 l-71 25
-29 -27 c-16 -14 -63 -53 -104 -86 -41 -33 -82 -66 -90 -75 -9 -8 -47 -42 -85
-75 -77 -66 -200 -182 -249 -234 -17 -18 -55 -58 -84 -89 -72 -75 -196 -241
-228 -304 -33 -65 -54 -135 -47 -156 25 -81 75 -106 208 -104 70 1 98 5 180
22 142 30 446 130 590 195 28 12 100 44 160 70 101 43 557 267 580 285 6 4 60
33 120 65 194 103 616 357 885 534 122 80 190 127 385 265 11 8 68 50 126 93
58 43 119 87 134 98 15 11 32 25 39 30 6 6 40 33 76 60 36 27 70 54 75 60 6 6
33 28 60 50 28 21 55 43 60 49 6 6 48 43 95 82 84 70 120 103 255 234 247 239
390 449 386 564 -5 110 -112 151 -315 120z"/>
<path d="M1070 3458 c-88 -137 -150 -301 -155 -418 -3 -70 29 -161 103 -285
35 -59 168 -225 181 -225 3 0 22 -15 41 -33 97 -92 357 -226 487 -252 10 -2
30 -6 45 -10 25 -6 27 -4 44 52 10 32 18 61 18 65 1 3 4 10 9 14 4 4 7 15 7
24 0 14 -27 26 -105 45 -28 7 -185 79 -243 112 -144 80 -260 164 -378 276
-101 96 -137 145 -132 184 4 35 43 46 52 15 6 -18 52 -64 171 -171 27 -24 85
-68 129 -98 103 -68 495 -264 534 -267 7 -1 21 12 30 29 9 16 23 36 30 44 7 7
10 17 5 21 -4 4 -66 29 -138 55 -208 77 -436 192 -515 261 -60 53 -140 138
-145 155 -4 12 -2 26 3 31 12 12 55 4 74 -15 7 -7 33 -27 58 -44 25 -17 56
-41 70 -53 53 -47 145 -104 246 -151 57 -27 108 -49 113 -49 4 0 22 -7 39 -16
17 -8 44 -17 59 -20 15 -3 33 -10 40 -16 7 -6 13 -7 13 -3 0 4 7 2 15 -5 8 -7
15 -10 15 -7 0 3 16 -1 35 -9 19 -8 38 -14 42 -14 5 0 16 -3 27 -6 13 -4 27 4
47 27 15 18 26 36 23 40 -2 4 -28 13 -56 19 -57 14 -191 56 -223 70 -33 15
-95 39 -98 38 -6 -2 -163 85 -223 124 -131 85 -253 234 -330 402 -21 47 -41
86 -44 86 -3 0 -12 -10 -20 -22z m16 -265 c24 -45 25 -67 2 -71 -14 -3 -71 56
-60 61 2 1 -1 15 -7 30 -6 16 -9 33 -6 38 10 15 50 -18 71 -58z"/>
<path d="M2920 3331 l-35 -38 34 -34 c22 -21 36 -29 39 -21 2 7 16 24 30 37
l26 24 -26 23 c-14 13 -27 28 -29 35 -2 7 -19 -4 -39 -26z"/>
<path d="M305 3256 c-32 -32 -32 -60 0 -92 58 -57 141 22 88 84 -30 34 -59 37
-88 8z"/>
<path d="M4065 3188 c-16 -4 -39 -10 -50 -12 -55 -11 -195 -63 -310 -116 -38
-18 -103 -47 -142 -66 -40 -18 -73 -37 -73 -41 0 -5 20 -19 44 -33 37 -20 49
-22 68 -13 74 35 153 57 202 54 40 -2 48 -9 40 -34 -8 -25 -81 -122 -113 -151
-19 -17 -20 -21 -6 -35 9 -9 22 -25 29 -35 13 -19 16 -18 67 24 84 70 94 79
207 190 148 145 194 220 158 256 -19 19 -77 25 -121 12z"/>
<path d="M2810 2937 c-3 -3 -28 -7 -55 -10 -137 -13 -339 -105 -466 -211 -145
-121 -266 -305 -318 -482 -22 -75 -26 -104 -13 -104 20 0 357 182 417 225 42
30 65 37 81 24 20 -16 17 -52 -6 -77 -25 -27 -286 -181 -412 -244 -74 -37 -99
-54 -104 -72 -8 -35 -1 -61 16 -60 25 1 106 34 250 102 91 43 149 60 151 44 0
-4 2 -15 4 -24 6 -31 -23 -53 -170 -128 -146 -75 -181 -102 -169 -134 8 -21
22 -20 80 6 27 12 51 23 54 23 3 1 22 9 43 18 94 42 105 45 116 34 18 -18 13
-34 -20 -62 -37 -30 -111 -69 -221 -115 -58 -23 -77 -36 -74 -48 7 -40 39
-102 53 -102 17 0 247 112 251 123 2 4 8 7 13 7 13 0 192 103 358 207 285 179
807 536 983 674 l28 21 -48 50 -47 49 -70 -66 c-39 -37 -124 -107 -190 -156
-66 -49 -125 -94 -132 -99 -7 -6 -15 -10 -18 -10 -3 0 -11 -4 -18 -10 -39 -32
-446 -281 -567 -347 -30 -16 -80 -44 -112 -61 -51 -29 -117 -43 -119 -24 0 4
-2 15 -4 25 -2 10 6 23 18 31 12 7 51 31 87 53 36 22 81 49 100 59 19 11 37
22 40 26 3 4 17 12 30 18 14 6 45 24 70 40 25 16 51 33 59 36 21 11 260 173
271 184 3 3 19 14 35 24 33 21 73 50 250 181 66 49 125 93 130 97 62 46 69 56
55 72 -34 42 -47 40 -118 -16 -37 -29 -72 -58 -79 -64 -7 -7 -76 -55 -155
-107 -146 -97 -180 -109 -202 -74 -13 20 15 61 59 85 17 9 32 20 33 25 2 4 10
7 18 7 8 0 14 4 14 9 0 5 15 18 33 30 17 11 41 28 52 38 11 10 40 34 65 53 25
19 57 45 71 58 14 12 34 29 45 36 17 13 16 15 -21 31 -53 23 -116 46 -136 50
-9 2 -34 8 -54 14 -21 6 -42 8 -46 5 -4 -2 -10 -1 -12 3 -6 9 -249 18 -257 10z
m86 -520 c2 -14 -83 -87 -102 -87 -3 0 -18 -8 -32 -18 -60 -42 -162 -91 -176
-86 -22 8 -31 44 -15 60 18 17 179 114 191 114 4 0 8 5 8 10 0 6 7 10 15 10 8
0 15 4 15 9 0 5 12 14 28 19 31 11 64 -4 68 -31z m-621 12 c7 -23 -11 -43 -68
-74 -33 -17 -67 -16 -67 3 0 22 92 91 122 92 4 0 10 -9 13 -21z"/>
<path d="M4457 2716 l-68 -62 -4 -179 c-3 -99 -7 -193 -9 -210 -9 -59 -17
-110 -21 -125 -2 -8 -7 -29 -10 -47 -3 -18 -10 -44 -15 -58 -6 -15 -8 -31 -4
-36 3 -5 0 -9 -7 -9 -7 0 -10 -3 -6 -6 18 -19 -130 -355 -212 -479 -117 -179
-290 -372 -420 -468 -31 -23 -58 -44 -61 -47 -3 -4 -23 -17 -45 -30 -22 -13
-42 -27 -45 -30 -11 -14 -209 -118 -280 -147 -90 -37 -152 -58 -162 -55 -5 1
-8 -2 -8 -6 0 -4 -8 -8 -17 -9 -10 -1 -56 -11 -102 -23 -47 -11 -103 -23 -125
-25 -23 -3 -54 -8 -71 -12 -16 -3 -62 -7 -101 -8 -39 -1 -75 -4 -80 -6 -9 -4
-64 -3 -74 1 -3 1 -36 3 -75 4 -65 2 -153 12 -200 23 -11 3 -27 5 -35 5 -68 2
-285 69 -435 134 l-100 44 -93 -31 c-112 -37 -112 -35 38 -111 137 -70 310
-140 379 -153 9 -2 34 -8 56 -14 22 -5 56 -13 75 -16 19 -3 43 -8 52 -11 124
-38 551 -38 725 0 36 8 70 15 108 22 107 19 403 137 540 216 47 27 215 140
246 165 245 201 436 440 566 710 26 54 48 103 49 108 2 6 18 53 37 105 19 52
35 98 36 103 1 4 1 8 2 10 11 35 49 221 54 262 3 28 8 68 10 90 16 131 7 447
-13 467 -4 3 -38 -22 -75 -56z"/>
<path d="M926 2690 c13 -75 73 -230 107 -275 4 -5 25 -38 48 -72 41 -63 110
-139 184 -202 91 -77 305 -179 410 -195 22 -3 52 -9 68 -12 l27 -6 1 74 c1 40
2 84 3 97 1 20 -5 26 -34 33 -49 13 -170 57 -202 74 -16 8 -28 13 -28 10 0 -9
-162 85 -240 140 -116 81 -246 215 -338 350 -11 17 -12 14 -6 -16z"/>
<path d="M292 2533 c-11 -31 -40 -65 -78 -89 l-24 -17 31 -23 c41 -30 62 -53
75 -83 10 -24 11 -23 37 22 16 26 41 54 57 62 29 15 40 35 21 35 -13 0 -70 59
-91 93 l-18 28 -10 -28z"/>
<path d="M4724 2477 c-14 -13 -27 -34 -28 -48 -5 -59 61 -111 115 -90 36 13
51 35 52 75 2 75 -81 113 -139 63z"/>
<path d="M3798 2233 c-27 -30 -49 -49 -118 -103 -25 -19 -51 -41 -59 -48 -8
-8 -39 -32 -70 -55 -31 -23 -58 -45 -61 -49 -18 -23 -393 -278 -410 -278 -5 0
-10 -3 -10 -7 0 -5 -10 -13 -23 -19 -12 -7 -85 -44 -162 -83 -125 -65 -263
-127 -322 -145 -20 -6 -72 -35 -257 -143 l-68 -41 20 -20 20 -20 98 35 c55 19
106 36 114 38 8 2 42 14 75 26 33 13 62 24 65 25 9 2 83 34 165 72 129 60 252
128 385 216 351 232 413 270 432 264 18 -6 -159 -182 -257 -255 -44 -33 -116
-83 -160 -112 -44 -28 -85 -55 -91 -59 -10 -9 -303 -153 -354 -174 -83 -35
-145 -60 -160 -63 -8 -2 -55 -18 -105 -35 -49 -17 -97 -33 -105 -36 -25 -9 34
-49 138 -95 l94 -41 46 17 c26 10 63 26 82 35 19 10 38 18 42 19 12 2 308 155
366 190 29 17 55 31 57 31 15 0 318 199 323 212 2 4 10 8 17 8 7 0 15 3 17 8
2 4 21 20 43 37 62 45 113 91 202 182 l82 84 -1 119 c0 67 -7 147 -15 182 -18
74 -21 90 -22 101 -2 16 -29 6 -53 -20z"/>
<path d="M4139 2194 c-20 -25 -18 -54 7 -71 43 -28 88 19 59 63 -18 28 -47 31
-66 8z"/>
<path d="M981 2131 c-59 -59 17 -153 83 -104 33 24 39 51 18 88 -23 38 -71 46
-101 16z"/>
<path d="M1750 1883 c-47 -36 -87 -68 -90 -72 -3 -4 -30 -24 -60 -46 -30 -22
-57 -42 -60 -45 -3 -3 -27 -23 -55 -45 -145 -115 -351 -325 -380 -387 -28 -60
-24 -75 18 -83 26 -5 112 -1 112 5 0 1 9 3 19 5 46 9 206 66 293 106 24 10 45
19 48 19 3 0 84 39 180 86 l174 86 -12 26 c-6 15 -12 28 -13 30 -1 1 -39 -15
-85 -36 -171 -81 -206 -95 -293 -123 -93 -30 -151 -33 -167 -8 -13 20 -12 22
22 69 50 69 169 180 327 305 7 5 19 16 27 23 7 6 18 12 24 12 6 0 11 4 11 9 0
6 14 18 30 28 26 15 30 23 30 60 0 24 -3 43 -7 42 -5 0 -46 -30 -93 -66z"/>
<path d="M365 1728 c-88 -32 -113 -145 -46 -211 24 -25 40 -31 77 -33 58 -3
83 8 111 49 48 70 18 171 -57 192 -47 13 -55 13 -85 3z"/>
<path d="M3760 1588 c-36 -34 -94 -84 -130 -112 -36 -28 -67 -53 -70 -56 -28
-32 -256 -185 -365 -246 -93 -52 -242 -125 -266 -129 -10 -2 -24 -7 -29 -10
-5 -3 -18 -8 -27 -10 -10 -2 -31 -10 -48 -19 -30 -16 -30 -16 -5 -17 14 0 54
0 90 2 36 1 79 2 95 1 17 0 50 6 75 13 25 7 53 11 63 9 9 -1 17 3 17 9 0 5 3
8 6 4 6 -6 101 27 172 59 128 60 293 199 372 314 57 84 139 250 122 250 -4 0
-36 -28 -72 -62z"/>
<path d="M4200 1111 c0 -7 -13 -26 -30 -41 l-30 -28 36 -38 c32 -33 37 -36 46
-21 5 10 19 27 31 40 l22 22 -37 39 c-21 22 -38 34 -38 27z"/>
<path d="M3890 780 c-22 -22 -17 -46 11 -55 42 -14 66 39 29 63 -17 10 -23 9
-40 -8z"/>
</g>
</svg>
